<mxfile host="app.diagrams.net" agent="Mozilla/5.0 (Macintosh; Intel Mac OS X 10_15_7) AppleWebKit/537.36 (KHTML, like Gecko) Chrome/140.0.0.0 Safari/537.36" version="28.2.3">
  <diagram name="第 1 页" id="lvDQNgmPr2clPpsq0qLs">
    <mxGraphModel dx="1234" dy="790" grid="1" gridSize="10" guides="1" tooltips="1" connect="1" arrows="1" fold="1" page="1" pageScale="1" pageWidth="827" pageHeight="1169" math="0" shadow="0">
      <root>
        <mxCell id="0" />
        <mxCell id="1" parent="0" />
        <mxCell id="_MQr-Z1Sg6qbIdySU4VO-49" style="edgeStyle=orthogonalEdgeStyle;rounded=0;orthogonalLoop=1;jettySize=auto;html=1;exitX=0.5;exitY=0;exitDx=0;exitDy=0;entryX=0;entryY=0.5;entryDx=0;entryDy=0;" edge="1" parent="1" source="_MQr-Z1Sg6qbIdySU4VO-1" target="_MQr-Z1Sg6qbIdySU4VO-45">
          <mxGeometry relative="1" as="geometry" />
        </mxCell>
        <mxCell id="_MQr-Z1Sg6qbIdySU4VO-1" value="advisor" style="rounded=1;whiteSpace=wrap;html=1;" vertex="1" parent="1">
          <mxGeometry x="770" y="530" width="120" height="60" as="geometry" />
        </mxCell>
        <mxCell id="_MQr-Z1Sg6qbIdySU4VO-2" style="edgeStyle=orthogonalEdgeStyle;rounded=0;orthogonalLoop=1;jettySize=auto;html=1;" edge="1" parent="1" source="_MQr-Z1Sg6qbIdySU4VO-4" target="_MQr-Z1Sg6qbIdySU4VO-8">
          <mxGeometry relative="1" as="geometry" />
        </mxCell>
        <mxCell id="_MQr-Z1Sg6qbIdySU4VO-3" style="edgeStyle=orthogonalEdgeStyle;rounded=0;orthogonalLoop=1;jettySize=auto;html=1;entryX=0;entryY=0.5;entryDx=0;entryDy=0;" edge="1" parent="1" source="_MQr-Z1Sg6qbIdySU4VO-4" target="_MQr-Z1Sg6qbIdySU4VO-5">
          <mxGeometry relative="1" as="geometry" />
        </mxCell>
        <mxCell id="_MQr-Z1Sg6qbIdySU4VO-4" value="自动化case管理系统" style="rounded=1;whiteSpace=wrap;html=1;" vertex="1" parent="1">
          <mxGeometry x="1080" y="530" width="160" height="60" as="geometry" />
        </mxCell>
        <mxCell id="_MQr-Z1Sg6qbIdySU4VO-5" value="云真机平台" style="rounded=1;whiteSpace=wrap;html=1;" vertex="1" parent="1">
          <mxGeometry x="1390" y="530" width="120" height="60" as="geometry" />
        </mxCell>
        <mxCell id="_MQr-Z1Sg6qbIdySU4VO-6" style="edgeStyle=orthogonalEdgeStyle;rounded=0;orthogonalLoop=1;jettySize=auto;html=1;entryX=0.5;entryY=1;entryDx=0;entryDy=0;" edge="1" parent="1" source="_MQr-Z1Sg6qbIdySU4VO-8" target="_MQr-Z1Sg6qbIdySU4VO-1">
          <mxGeometry relative="1" as="geometry" />
        </mxCell>
        <mxCell id="_MQr-Z1Sg6qbIdySU4VO-7" style="edgeStyle=orthogonalEdgeStyle;rounded=0;orthogonalLoop=1;jettySize=auto;html=1;entryX=0.5;entryY=0;entryDx=0;entryDy=0;" edge="1" parent="1" source="_MQr-Z1Sg6qbIdySU4VO-8" target="_MQr-Z1Sg6qbIdySU4VO-12">
          <mxGeometry relative="1" as="geometry">
            <mxPoint x="1160" y="820" as="targetPoint" />
          </mxGeometry>
        </mxCell>
        <mxCell id="_MQr-Z1Sg6qbIdySU4VO-8" value="定时任务获取待执行自动化任务" style="ellipse;whiteSpace=wrap;html=1;" vertex="1" parent="1">
          <mxGeometry x="1055" y="670" width="210" height="70" as="geometry" />
        </mxCell>
        <mxCell id="_MQr-Z1Sg6qbIdySU4VO-9" value="调用http接口" style="text;html=1;align=center;verticalAlign=middle;resizable=0;points=[];autosize=1;strokeColor=none;fillColor=none;" vertex="1" parent="1">
          <mxGeometry x="890" y="658" width="90" height="30" as="geometry" />
        </mxCell>
        <mxCell id="_MQr-Z1Sg6qbIdySU4VO-10" value="获得各平台手机设备" style="text;html=1;align=center;verticalAlign=middle;resizable=0;points=[];autosize=1;strokeColor=none;fillColor=none;" vertex="1" parent="1">
          <mxGeometry x="1250" y="568" width="130" height="30" as="geometry" />
        </mxCell>
        <mxCell id="_MQr-Z1Sg6qbIdySU4VO-41" style="edgeStyle=orthogonalEdgeStyle;rounded=0;orthogonalLoop=1;jettySize=auto;html=1;entryX=0.5;entryY=0;entryDx=0;entryDy=0;" edge="1" parent="1" source="_MQr-Z1Sg6qbIdySU4VO-12" target="_MQr-Z1Sg6qbIdySU4VO-18">
          <mxGeometry relative="1" as="geometry" />
        </mxCell>
        <mxCell id="_MQr-Z1Sg6qbIdySU4VO-12" value="判断任务类型，找到接任务对应的自动化case脚本，传入运行时参数，启动脚本运行" style="ellipse;whiteSpace=wrap;html=1;" vertex="1" parent="1">
          <mxGeometry x="920" y="870" width="480" height="80" as="geometry" />
        </mxCell>
        <mxCell id="_MQr-Z1Sg6qbIdySU4VO-16" style="edgeStyle=orthogonalEdgeStyle;rounded=0;orthogonalLoop=1;jettySize=auto;html=1;" edge="1" parent="1" source="_MQr-Z1Sg6qbIdySU4VO-18" target="_MQr-Z1Sg6qbIdySU4VO-22">
          <mxGeometry relative="1" as="geometry" />
        </mxCell>
        <mxCell id="_MQr-Z1Sg6qbIdySU4VO-42" style="edgeStyle=orthogonalEdgeStyle;rounded=0;orthogonalLoop=1;jettySize=auto;html=1;entryX=0;entryY=0.5;entryDx=0;entryDy=0;" edge="1" parent="1" source="_MQr-Z1Sg6qbIdySU4VO-18" target="_MQr-Z1Sg6qbIdySU4VO-1">
          <mxGeometry relative="1" as="geometry">
            <Array as="points">
              <mxPoint x="530" y="1100" />
              <mxPoint x="530" y="560" />
            </Array>
          </mxGeometry>
        </mxCell>
        <mxCell id="_MQr-Z1Sg6qbIdySU4VO-18" value="获取任务对应的子场景下所有接口及其trace链路" style="ellipse;whiteSpace=wrap;html=1;" vertex="1" parent="1">
          <mxGeometry x="955" y="1060" width="410" height="80" as="geometry" />
        </mxCell>
        <mxCell id="_MQr-Z1Sg6qbIdySU4VO-57" style="edgeStyle=orthogonalEdgeStyle;rounded=0;orthogonalLoop=1;jettySize=auto;html=1;" edge="1" parent="1" source="_MQr-Z1Sg6qbIdySU4VO-22">
          <mxGeometry relative="1" as="geometry">
            <mxPoint x="530" y="1100" as="targetPoint" />
          </mxGeometry>
        </mxCell>
        <mxCell id="_MQr-Z1Sg6qbIdySU4VO-22" value="遍历所有接口下的trace一次注入故障，并执行UI自动化代码" style="ellipse;whiteSpace=wrap;html=1;" vertex="1" parent="1">
          <mxGeometry x="955" y="1280" width="410" height="80" as="geometry" />
        </mxCell>
        <mxCell id="_MQr-Z1Sg6qbIdySU4VO-56" style="edgeStyle=orthogonalEdgeStyle;rounded=0;orthogonalLoop=1;jettySize=auto;html=1;entryX=0.5;entryY=0;entryDx=0;entryDy=0;" edge="1" parent="1" source="_MQr-Z1Sg6qbIdySU4VO-36" target="_MQr-Z1Sg6qbIdySU4VO-38">
          <mxGeometry relative="1" as="geometry" />
        </mxCell>
        <mxCell id="_MQr-Z1Sg6qbIdySU4VO-59" style="edgeStyle=orthogonalEdgeStyle;rounded=0;orthogonalLoop=1;jettySize=auto;html=1;" edge="1" parent="1" source="_MQr-Z1Sg6qbIdySU4VO-36">
          <mxGeometry relative="1" as="geometry">
            <mxPoint x="530" y="1510" as="targetPoint" />
          </mxGeometry>
        </mxCell>
        <mxCell id="_MQr-Z1Sg6qbIdySU4VO-36" value="上报进度与执行日志" style="ellipse;whiteSpace=wrap;html=1;" vertex="1" parent="1">
          <mxGeometry x="970" y="1650" width="390" height="80" as="geometry" />
        </mxCell>
        <mxCell id="_MQr-Z1Sg6qbIdySU4VO-60" style="edgeStyle=orthogonalEdgeStyle;rounded=0;orthogonalLoop=1;jettySize=auto;html=1;" edge="1" parent="1" source="_MQr-Z1Sg6qbIdySU4VO-38">
          <mxGeometry relative="1" as="geometry">
            <mxPoint x="530" y="1690" as="targetPoint" />
          </mxGeometry>
        </mxCell>
        <mxCell id="_MQr-Z1Sg6qbIdySU4VO-38" value="更新任务状态" style="ellipse;whiteSpace=wrap;html=1;" vertex="1" parent="1">
          <mxGeometry x="960" y="1850" width="410" height="80" as="geometry" />
        </mxCell>
        <mxCell id="_MQr-Z1Sg6qbIdySU4VO-43" value="调用http接口" style="text;html=1;align=center;verticalAlign=middle;resizable=0;points=[];autosize=1;strokeColor=none;fillColor=none;" vertex="1" parent="1">
          <mxGeometry x="670" y="1060" width="90" height="30" as="geometry" />
        </mxCell>
        <mxCell id="_MQr-Z1Sg6qbIdySU4VO-55" style="edgeStyle=orthogonalEdgeStyle;rounded=0;orthogonalLoop=1;jettySize=auto;html=1;entryX=0.5;entryY=0;entryDx=0;entryDy=0;" edge="1" parent="1" source="_MQr-Z1Sg6qbIdySU4VO-44" target="_MQr-Z1Sg6qbIdySU4VO-36">
          <mxGeometry relative="1" as="geometry" />
        </mxCell>
        <mxCell id="_MQr-Z1Sg6qbIdySU4VO-58" style="edgeStyle=orthogonalEdgeStyle;rounded=0;orthogonalLoop=1;jettySize=auto;html=1;" edge="1" parent="1" source="_MQr-Z1Sg6qbIdySU4VO-44">
          <mxGeometry relative="1" as="geometry">
            <mxPoint x="530" y="1320" as="targetPoint" />
          </mxGeometry>
        </mxCell>
        <mxCell id="_MQr-Z1Sg6qbIdySU4VO-44" value="上传故障注入后执行UI自动化代码得到的截图" style="ellipse;whiteSpace=wrap;html=1;" vertex="1" parent="1">
          <mxGeometry x="980" y="1470" width="370" height="80" as="geometry" />
        </mxCell>
        <mxCell id="_MQr-Z1Sg6qbIdySU4VO-47" value="" style="group" vertex="1" connectable="0" parent="1">
          <mxGeometry x="795" y="320" width="70" height="120" as="geometry" />
        </mxCell>
        <mxCell id="_MQr-Z1Sg6qbIdySU4VO-45" value="" style="shape=process;whiteSpace=wrap;html=1;backgroundOutline=1;rotation=-90;" vertex="1" parent="_MQr-Z1Sg6qbIdySU4VO-47">
          <mxGeometry x="-25" y="25" width="120" height="70" as="geometry" />
        </mxCell>
        <mxCell id="_MQr-Z1Sg6qbIdySU4VO-46" value="消息队列" style="text;html=1;align=center;verticalAlign=middle;resizable=0;points=[];autosize=1;strokeColor=none;fillColor=none;" vertex="1" parent="_MQr-Z1Sg6qbIdySU4VO-47">
          <mxGeometry y="40" width="70" height="30" as="geometry" />
        </mxCell>
        <mxCell id="_MQr-Z1Sg6qbIdySU4VO-51" style="edgeStyle=orthogonalEdgeStyle;rounded=0;orthogonalLoop=1;jettySize=auto;html=1;" edge="1" parent="1" source="_MQr-Z1Sg6qbIdySU4VO-48">
          <mxGeometry relative="1" as="geometry">
            <mxPoint x="530" y="560" as="targetPoint" />
          </mxGeometry>
        </mxCell>
        <mxCell id="_MQr-Z1Sg6qbIdySU4VO-48" value="AI" style="rounded=1;whiteSpace=wrap;html=1;" vertex="1" parent="1">
          <mxGeometry x="770" y="160" width="120" height="60" as="geometry" />
        </mxCell>
        <mxCell id="_MQr-Z1Sg6qbIdySU4VO-50" style="edgeStyle=orthogonalEdgeStyle;rounded=0;orthogonalLoop=1;jettySize=auto;html=1;entryX=0.5;entryY=1;entryDx=0;entryDy=0;" edge="1" parent="1" source="_MQr-Z1Sg6qbIdySU4VO-45" target="_MQr-Z1Sg6qbIdySU4VO-48">
          <mxGeometry relative="1" as="geometry" />
        </mxCell>
        <mxCell id="_MQr-Z1Sg6qbIdySU4VO-53" value="强弱依赖结果回写" style="text;html=1;align=center;verticalAlign=middle;resizable=0;points=[];autosize=1;strokeColor=none;fillColor=none;" vertex="1" parent="1">
          <mxGeometry x="530" y="378" width="120" height="30" as="geometry" />
        </mxCell>
        <mxCell id="_MQr-Z1Sg6qbIdySU4VO-54" style="edgeStyle=orthogonalEdgeStyle;rounded=0;orthogonalLoop=1;jettySize=auto;html=1;entryX=0.484;entryY=0.006;entryDx=0;entryDy=0;entryPerimeter=0;" edge="1" parent="1" source="_MQr-Z1Sg6qbIdySU4VO-22" target="_MQr-Z1Sg6qbIdySU4VO-44">
          <mxGeometry relative="1" as="geometry" />
        </mxCell>
        <mxCell id="_MQr-Z1Sg6qbIdySU4VO-61" value="调用http接口" style="text;html=1;align=center;verticalAlign=middle;resizable=0;points=[];autosize=1;strokeColor=none;fillColor=none;" vertex="1" parent="1">
          <mxGeometry x="670" y="1290" width="90" height="30" as="geometry" />
        </mxCell>
        <mxCell id="_MQr-Z1Sg6qbIdySU4VO-62" value="调用http接口" style="text;html=1;align=center;verticalAlign=middle;resizable=0;points=[];autosize=1;strokeColor=none;fillColor=none;" vertex="1" parent="1">
          <mxGeometry x="670" y="1470" width="90" height="30" as="geometry" />
        </mxCell>
        <mxCell id="_MQr-Z1Sg6qbIdySU4VO-63" value="调用http接口" style="text;html=1;align=center;verticalAlign=middle;resizable=0;points=[];autosize=1;strokeColor=none;fillColor=none;" vertex="1" parent="1">
          <mxGeometry x="670" y="1650" width="90" height="30" as="geometry" />
        </mxCell>
        <mxCell id="_MQr-Z1Sg6qbIdySU4VO-64" value="调用http接口" style="text;html=1;align=center;verticalAlign=middle;resizable=0;points=[];autosize=1;strokeColor=none;fillColor=none;" vertex="1" parent="1">
          <mxGeometry x="670" y="1850" width="90" height="30" as="geometry" />
        </mxCell>
      </root>
    </mxGraphModel>
  </diagram>
</mxfile>
